<svg xmlns="http://www.w3.org/2000/svg" viewBox="0 0 18.872 21">
  <defs>
    <style>
      .cls-1 {
        fill: #fff;
        stroke: #fff;
      }
    </style>
  </defs>
  <g id="组_416" data-name="组 416" transform="translate(-306.064 -31.5)">
    <path id="加人" class="cls-1" d="M14.33,12.365a8.691,8.691,0,0,0-1.941-.847,6.113,6.113,0,1,0-5.437.134,8.744,8.744,0,0,0-5.8,8.224H2.229a7.65,7.65,0,0,1,11.548-6.581l.552-.93ZM4.5,6.113a5.033,5.033,0,1,1,5.033,5.032A5.038,5.038,0,0,1,4.5,6.113ZM19.021,16.6H16.706V14.291H15.625V16.6H13.311v1.081h2.314V20h1.081V17.686h2.314Z" transform="translate(305.416 32)"/>
  </g>
</svg>
