<svg xmlns="http://www.w3.org/2000/svg" viewBox="0 0 20.301 20.3">
  <defs>
    <style>
      .cls-1 {
        stroke: #fafafa;
        stroke-width: 0.3px;
      }
    </style>
  </defs>
  <path id="图标_-_底部导航栏_-_艺人" data-name="图标 - 底部导航栏 - 艺人" class="cls-1" d="M10.564,22.3a5.749,5.749,0,0,0,2.658-4.939,5.409,5.409,0,0,0-5.131-5.639A5.409,5.409,0,0,0,2.96,17.364,5.75,5.75,0,0,0,5.61,22.3a7.6,7.6,0,0,0-3.735,2.9A10.711,10.711,0,0,0,0,31.111a.607.607,0,0,0,.6.614.607.607,0,0,0,.6-.614,9.561,9.561,0,0,1,1.651-5.2,6.212,6.212,0,0,1,5.24-2.789c4.726,0,6.928,4.767,6.928,7.988a.6.6,0,1,0,1.2,0C16.219,28,14.407,23.641,10.564,22.3Zm-6.4-4.939a4.2,4.2,0,0,1,3.931-4.411,4.2,4.2,0,0,1,3.931,4.411,4.2,4.2,0,0,1-3.931,4.411A4.2,4.2,0,0,1,4.16,17.364Zm14.7,7.45A7.316,7.316,0,0,0,15.536,21.9,5.049,5.049,0,0,0,17.7,17.442a4.942,4.942,0,0,0-3.353-4.273.6.6,0,0,0-.742.415.618.618,0,0,0,.4.763,3.731,3.731,0,0,1,2.5,3.208c.232,2.562-2.464,3.88-2.578,3.935a.616.616,0,0,0-.346.616.609.609,0,0,0,.453.538,6.712,6.712,0,0,1,3.789,2.786,8.207,8.207,0,0,1,.977,3.741.608.608,0,0,0,.585.629H19.4a.607.607,0,0,0,.6-.6A9.358,9.358,0,0,0,18.86,24.814Z" transform="translate(0.15 -11.575)"/>
</svg>
