<svg xmlns="http://www.w3.org/2000/svg" viewBox="0 0 20 20">
  <defs>
    <style>
      .cls-1 {
        fill: #cdcdcd;
      }
    </style>
  </defs>
  <path id="图标_-_底部导航栏_-_通讯录" data-name="图标 - 底部导航栏 - 通讯录" class="cls-1" d="M2.541,20A1.3,1.3,0,0,1,1.29,18.664v-2.63H.517a.546.546,0,0,1,0-1.091H1.29V12.568H.517a.546.546,0,0,1,0-1.091H1.29V9.1H.517a.546.546,0,0,1,0-1.091H1.29V5.637H.517a.546.546,0,0,1,0-1.091H1.29V1.337A1.3,1.3,0,0,1,2.541,0H18.75A1.3,1.3,0,0,1,20,1.337V18.664A1.3,1.3,0,0,1,18.75,20Zm-.36-1.336a.372.372,0,0,0,.36.384H18.75a.372.372,0,0,0,.359-.384V1.337A.373.373,0,0,0,18.75.952H2.541a.373.373,0,0,0-.36.385V4.546h.7a.546.546,0,0,1,0,1.091h-.7V8.012h.7a.546.546,0,0,1,0,1.091h-.7v2.375h.7a.546.546,0,0,1,0,1.091h-.7v2.375h.7a.546.546,0,0,1,0,1.091h-.7Zm10.871-3.21a6,6,0,0,1-1.8-.334,7.5,7.5,0,0,1-1.717-.811,10,10,0,0,1-1.573-1.253v0a10.053,10.053,0,0,1-1.255-1.57,7.9,7.9,0,0,1-.833-1.719,6.907,6.907,0,0,1-.319-1.806,4.926,4.926,0,0,1,.257-1.709,3.237,3.237,0,0,1,.525-1.01,1.406,1.406,0,0,1,1.851-.523l.041.02a2.27,2.27,0,0,1,.36.313l.052.035,1.482,1.9.031.052a1.369,1.369,0,0,1,.029,1.534,3.42,3.42,0,0,1-.956.811c.021.031.042.067.073.119a8.981,8.981,0,0,0,2.211,2.221.31.31,0,0,0,.123.052l.412-.56c.01-.021.04-.052.051-.078a.741.741,0,0,1,.164-.169l.021-.02a1.362,1.362,0,0,1,1.254-.293l.041.011a1.267,1.267,0,0,1,.422.215l.03.015v0l1.913,1.478.03.035a1.187,1.187,0,0,1,.2.2,1.393,1.393,0,0,1-.133,1.864,3.345,3.345,0,0,1-1.265.723l-.041.015a5.141,5.141,0,0,1-1.574.242ZM6.624,6.53a3.884,3.884,0,0,0-.195,1.416A5.133,5.133,0,0,0,6.707,9.5a6.431,6.431,0,0,0,.74,1.524,8.991,8.991,0,0,0,1.121,1.422A8.874,8.874,0,0,0,10,13.571a7.38,7.38,0,0,0,1.522.739,5.32,5.32,0,0,0,1.563.282,3.972,3.972,0,0,0,1.378-.21l.031-.011c.464-.138,1.6-.728.936-1.293h-.011l-.02-.01L13.505,11.6l-.011-.011a.227.227,0,0,0-.072-.051.519.519,0,0,0-.567.061l-.01.011a.39.39,0,0,1-.071.061l-.011.021-.534.739a.6.6,0,0,1-.185.143,1.072,1.072,0,0,1-1.029-.133A10,10,0,0,1,8.578,10a1.256,1.256,0,0,1-.215-.595V9.4a1.164,1.164,0,0,1,.072-.436.416.416,0,0,1,.143-.169l.7-.5.031-.027.02-.02a.522.522,0,0,0,.113-.7l-.02-.015L7.962,5.637a2.084,2.084,0,0,0-.175-.16.5.5,0,0,0-.226-.057C7.1,5.421,6.758,6.144,6.624,6.53Z"/>
</svg>
