<svg xmlns="http://www.w3.org/2000/svg" viewBox="0 0 20 20">
  <defs>
    <style>
      .cls-1 {
        fill: #cdcdcd;
      }
    </style>
  </defs>
  <path id="图标_-_底部导航栏_-_项目" data-name="图标 - 底部导航栏 - 项目" class="cls-1" d="M81.144,72.369A2.727,2.727,0,1,0,78.417,75.1,2.727,2.727,0,0,0,81.144,72.369Zm-2.727,1.818a1.818,1.818,0,1,1,1.818-1.818A1.818,1.818,0,0,1,78.417,74.187Zm-4.545-3.636a2.727,2.727,0,1,0-2.727-2.727A2.727,2.727,0,0,0,73.872,70.551Zm0-4.545a1.818,1.818,0,1,1-1.818,1.818A1.818,1.818,0,0,1,73.872,66.005Zm-1.818,6.364A2.727,2.727,0,1,0,69.326,75.1,2.727,2.727,0,0,0,72.053,72.369Zm-2.727,1.818a1.818,1.818,0,1,1,1.818-1.818A1.818,1.818,0,0,1,69.326,74.187Zm4.545,0A2.727,2.727,0,1,0,76.6,76.914,2.727,2.727,0,0,0,73.872,74.187Zm0,4.545a1.818,1.818,0,1,1,1.818-1.818A1.818,1.818,0,0,1,73.872,78.733ZM83.19,81.46H78.043a10,10,0,1,0-4.171.909l.2,0,.029,0H83.19a.227.227,0,0,0,.227-.227v-.455A.227.227,0,0,0,83.19,81.46Zm-9.318,0a9.091,9.091,0,1,1,9.091-9.091A9.091,9.091,0,0,1,73.872,81.46Z" transform="translate(-63.872 -62.369)"/>
</svg>
