<svg xmlns="http://www.w3.org/2000/svg" viewBox="0 0 20 20">
  <defs>
    <style>
      .cls-1 {
        fill: #cdcdcd;
      }
    </style>
  </defs>
  <path id="图标_-_底部导航栏_-_任务" data-name="图标 - 底部导航栏 - 任务" class="cls-1" d="M1,20c-.813,0-1-.169-1-.909V.909C0,.17.187,0,1,0H19c.813,0,1,.17,1,.909V19.091c0,.74-.187.909-1,.909Zm18-.909V.909H1V19.091ZM6.385,15.455c-.258,0,0-.754,0-.992H16.08c.258,0,1.078-.237,1.078,0a1.931,1.931,0,0,1-1.078.992Zm-3.658-.909a.909.909,0,1,1,.909.909A.906.906,0,0,1,2.727,14.546Zm3.658-.083C6.076,14.463,6.385,14.226,6.385,14.463ZM2.727,10a.909.909,0,1,1,.909.909A.907.907,0,0,1,2.727,10Zm13.353.5H6.385c0-.237-.309-.992,0-.992H16.08a2.113,2.113,0,0,1,1.078.992c0,.079-.085.105-.211.105C16.7,10.6,16.286,10.5,16.08,10.5Zm-9.695,0c0,.079-.029.105-.057.105C6.271,10.6,6.213,10.5,6.385,10.5ZM2.727,5.455a.909.909,0,1,1,.909.909A.906.906,0,0,1,2.727,5.455Zm13.353.083H6.385c0-.237-.309-.992,0-.992H16.08a2.114,2.114,0,0,1,1.078.992c0,.079-.085.105-.211.105C16.7,5.643,16.286,5.538,16.08,5.538Zm-9.695,0c0,.079-.029.105-.057.105C6.271,5.643,6.213,5.538,6.385,5.538Z"/>
</svg>
